# xmcd
#
# Track frame offsets:
#	150
#	2620
#	13305
#	27605
#	45772
#	61390
#	75442
#	90667
#	108032
#	123455
#	138217
#	158627
#	161797
#	178012
#	194057
#
# Disc length: 2747 seconds
#
# Revision: 0
# Processed by: cddbd v1.5PL3 Copyright (c) Steve Scherf et al.
# Submitted via: dBpowerAMP V4.0
#
DISCID=b80ab90f
DTITLE=Lari White - Don`t Fence Me In
DYEAR=1998
DGENRE=Country
TTITLE0=Don`t Fence Me In
TTITLE1=Wild At Heart
TTITLE2=Ready, Willing And Able
TTITLE3=Ghost Of A Chance
TTITLE4=The Test
TTITLE5=Ain`t Gonna Worry About Love No More
TTITLE6=Something Blue
TTITLE7=Next To Love
TTITLE8=Do It Again
TTITLE9=Be Honest
TTITLE10=I`ve Been Waiting For Your Love
TTITLE11=Soul Searchin` Blues
TTITLE12=Woman Of The World
TTITLE13=Unknown Track
TTITLE14=Don`t Fence Me In (reprise)
EXTD=
EXTT0=
EXTT1=
EXTT2=
EXTT3=
EXTT4=
EXTT5=
EXTT6=
EXTT7=
EXTT8=
EXTT9=
EXTT10=
EXTT11=
EXTT12=
EXTT13=
EXTT14=
PLAYORDER=
